{
  "accessors": [
    {
      "bufferView": 2,
      "componentType": 5126,
      "count": 65532,
      "max": [
        0.0687405988574028,
        0.011163218878209591,
        0.13595683872699738
      ],
      "min": [
        -0.02417258732020855,
        -0.0048218038864433765,
        -2.1382005499503975e-08
      ],
      "type": "VEC3"
    },
    {
      "bufferView": 2,
      "byteOffset": 786384,
      "componentType": 5126,
      "count": 65532,
      "max": [
        0.9999987483024597,
        0.9999973177909851,
        0.999997615814209
      ],
      "min": [
        -0.9999867081642151,
        -0.9999991655349731,
        -0.9999986290931702
      ],
      "type": "VEC3"
    },
    {
      "bufferView": 1,
      "componentType": 5126,
      "count": 65532,
      "max": [
        0.9996320605278015,
        0.9987791776657104
      ],
      "min": [
        0.000244140625,
        0.000566203729249537
      ],
      "type": "VEC2"
    },
    {
      "bufferView": 1,
      "byteOffset": 524256,
      "componentType": 5126,
      "count": 65532,
      "max": [
        0.9996320605278015,
        0.9987791776657104
      ],
      "min": [
        0.000244140625,
        0.000566203729249537
      ],
      "type": "VEC2"
    },
    {
      "bufferView": 0,
      "componentType": 5125,
      "count": 291978,
      "type": "SCALAR"
    },
    {
      "bufferView": 2,
      "byteOffset": 1572768,
      "componentType": 5126,
      "count": 65532,
      "max": [
        0.07428394258022308,
        0.011230275966227055,
        0.1358681321144104
      ],
      "min": [
        0.012126931920647621,
        -0.003996187821030617,
        0.008597852662205696
      ],
      "type": "VEC3"
    },
    {
      "bufferView": 2,
      "byteOffset": 2359152,
      "componentType": 5126,
      "count": 65532,
      "max": [
        0.9999955892562866,
        0.9999991655349731,
        0.9999997615814209
      ],
      "min": [
        -0.9999948143959045,
        -0.9999960660934448,
        -0.9999991655349731
      ],
      "type": "VEC3"
    },
    {
      "bufferView": 1,
      "byteOffset": 1048512,
      "componentType": 5126,
      "count": 65532,
      "max": [
        0.9996116757392883,
        0.9980170726776123
      ],
      "min": [
        0.000244140625,
        0.00025876297149807215
      ],
      "type": "VEC2"
    },
    {
      "bufferView": 1,
      "byteOffset": 1572768,
      "componentType": 5126,
      "count": 65532,
      "max": [
        0.9996116757392883,
        0.9980170726776123
      ],
      "min": [
        0.000244140625,
        0.00025876297149807215
      ],
      "type": "VEC2"
    },
    {
      "bufferView": 0,
      "byteOffset": 1167912,
      "componentType": 5125,
      "count": 254073,
      "type": "SCALAR"
    },
    {
      "bufferView": 2,
      "byteOffset": 3145536,
      "componentType": 5126,
      "count": 65532,
      "max": [
        0.06859605014324188,
        0.011323901824653149,
        0.08491038531064987
      ],
      "min": [
        0.02368498593568802,
        -0.003332680556923151,
        -2.544417654348763e-08
      ],
      "type": "VEC3"
    },
    {
      "bufferView": 2,
      "byteOffset": 3931920,
      "componentType": 5126,
      "count": 65532,
      "max": [
        0.9999997019767761,
        0.9999996423721313,
        0.9999834299087524
      ],
      "min": [
        -0.9999818205833435,
        -0.9999964237213135,
        -0.9999594688415527
      ],
      "type": "VEC3"
    },
    {
      "bufferView": 1,
      "byteOffset": 2097024,
      "componentType": 5126,
      "count": 65532,
      "max": [
        0.9997028112411499,
        0.9929198026657104
      ],
      "min": [
        0.000244140625,
        0.0002513123909011483
      ],
      "type": "VEC2"
    },
    {
      "bufferView": 1,
      "byteOffset": 2621280,
      "componentType": 5126,
      "count": 65532,
      "max": [
        0.9997028112411499,
        0.9929198026657104
      ],
      "min": [
        0.000244140625,
        0.0002513123909011483
      ],
      "type": "VEC2"
    },
    {
      "bufferView": 0,
      "byteOffset": 2184204,
      "componentType": 5125,
      "count": 275952,
      "type": "SCALAR"
    },
    {
      "bufferView": 2,
      "byteOffset": 4718304,
      "componentType": 5126,
      "count": 65532,
      "max": [
        0.07443130761384964,
        0.012006540782749653,
        0.13593488931655884
      ],
      "min": [
        -0.04101515933871269,
        -0.005094301421195269,
        -2.544417654348763e-08
      ],
      "type": "VEC3"
    },
    {
      "bufferView": 2,
      "byteOffset": 5504688,
      "componentType": 5126,
      "count": 65532,
      "max": [
        0.9999966025352478,
        0.9999969005584717,
        0.999995231628418
      ],
      "min": [
        -0.9999867081642151,
        -1.0,
        -0.9999842047691345
      ],
      "type": "VEC3"
    },
    {
      "bufferView": 1,
      "byteOffset": 3145536,
      "componentType": 5126,
      "count": 65532,
      "max": [
        0.9997473955154419,
        0.9951841831207275
      ],
      "min": [
        0.000244140625,
        0.00024588836822658777
      ],
      "type": "VEC2"
    },
    {
      "bufferView": 1,
      "byteOffset": 3669792,
      "componentType": 5126,
      "count": 65532,
      "max": [
        0.9997473955154419,
        0.9951841831207275
      ],
      "min": [
        0.000244140625,
        0.00024588836822658777
      ],
      "type": "VEC2"
    },
    {
      "bufferView": 0,
      "byteOffset": 3288012,
      "componentType": 5125,
      "count": 254388,
      "type": "SCALAR"
    },
    {
      "bufferView": 2,
      "byteOffset": 6291072,
      "componentType": 5126,
      "count": 65532,
      "max": [
        0.06265802681446075,
        0.0108964117243886,
        0.13435745239257813
      ],
      "min": [
        -0.06831824779510498,
        -0.004329564981162548,
        -1.8088657682824305e-08
      ],
      "type": "VEC3"
    },
    {
      "bufferView": 2,
      "byteOffset": 7077456,
      "componentType": 5126,
      "count": 65532,
      "max": [
        0.9999976754188538,
        0.9999914765357971,
        0.9999864101409912
      ],
      "min": [
        -0.9999974966049194,
        -1.0,
        -0.9999645948410034
      ],
      "type": "VEC3"
    },
    {
      "bufferView": 1,
      "byteOffset": 4194048,
      "componentType": 5126,
      "count": 65532,
      "max": [
        0.9997217655181885,
        0.9997557401657104
      ],
      "min": [
        0.000244140625,
        0.00024421943817287683
      ],
      "type": "VEC2"
    },
    {
      "bufferView": 1,
      "byteOffset": 4718304,
      "componentType": 5126,
      "count": 65532,
      "max": [
        0.9997217655181885,
        0.9997557401657104
      ],
      "min": [
        0.000244140625,
        0.00024421943817287683
      ],
      "type": "VEC2"
    },
    {
      "bufferView": 0,
      "byteOffset": 4305564,
      "componentType": 5125,
      "count": 276744,
      "type": "SCALAR"
    },
    {
      "bufferView": 2,
      "byteOffset": 7863840,
      "componentType": 5126,
      "count": 65532,
      "max": [
        0.021606270223855972,
        0.011051632463932037,
        0.09533821046352386
      ],
      "min": [
        -0.06740060448646545,
        -0.0038396865129470825,
        -1.3853715508105324e-08
      ],
      "type": "VEC3"
    },
    {
      "bufferView": 2,
      "byteOffset": 8650224,
      "componentType": 5126,
      "count": 65532,
      "max": [
        0.999964714050293,
        1.0,
        0.9999940991401672
      ],
      "min": [
        -0.9999949932098389,
        -0.9999961853027344,
        -0.9998803734779358
      ],
      "type": "VEC3"
    },
    {
      "bufferView": 1,
      "byteOffset": 5242560,
      "componentType": 5126,
      "count": 65532,
      "max": [
        0.9997125267982483,
        0.9997557401657104
      ],
      "min": [
        0.000244140625,
        0.00026269687805324793
      ],
      "type": "VEC2"
    },
    {
      "bufferView": 1,
      "byteOffset": 5766816,
      "componentType": 5126,
      "count": 65532,
      "max": [
        0.9997125267982483,
        0.9997557401657104
      ],
      "min": [
        0.000244140625,
        0.00026269687805324793
      ],
      "type": "VEC2"
    },
    {
      "bufferView": 0,
      "byteOffset": 5412540,
      "componentType": 5125,
      "count": 262146,
      "type": "SCALAR"
    },
    {
      "bufferView": 2,
      "byteOffset": 9436608,
      "componentType": 5126,
      "count": 65532,
      "max": [
        0.021047061309218407,
        0.011670315638184547,
        0.14191940426826477
      ],
      "min": [
        -0.061611201614141464,
        -0.005224424879997969,
        0.006972626317292452
      ],
      "type": "VEC3"
    },
    {
      "bufferView": 2,
      "byteOffset": 10222992,
      "componentType": 5126,
      "count": 65532,
      "max": [
        0.9999916553497314,
        0.9999975562095642,
        0.9999984502792358
      ],
      "min": [
        -0.9999963641166687,
        -1.0,
        -0.9999579787254333
      ],
      "type": "VEC3"
    },
    {
      "bufferView": 1,
      "byteOffset": 6291072,
      "componentType": 5126,
      "count": 65532,
      "max": [
        0.9997221231460571,
        0.9980417490005493
      ],
      "min": [
        0.000244140625,
        0.0002533389488235116
      ],
      "type": "VEC2"
    },
    {
      "bufferView": 1,
      "byteOffset": 6815328,
      "componentType": 5126,
      "count": 65532,
      "max": [
        0.9997221231460571,
        0.9980417490005493
      ],
      "min": [
        0.000244140625,
        0.0002533389488235116
      ],
      "type": "VEC2"
    },
    {
      "bufferView": 0,
      "byteOffset": 6461124,
      "componentType": 5125,
      "count": 273156,
      "type": "SCALAR"
    },
    {
      "bufferView": 2,
      "byteOffset": 11009376,
      "componentType": 5126,
      "count": 65532,
      "max": [
        0.021513545885682106,
        0.012011157348752022,
        0.14190393686294556
      ],
      "min": [
        -0.06280845403671265,
        -0.005519382655620575,
        0.08356361091136932
      ],
      "type": "VEC3"
    },
    {
      "bufferView": 2,
      "byteOffset": 11795760,
      "componentType": 5126,
      "count": 65532,
      "max": [
        0.9999986886978149,
        0.9999973177909851,
        0.9999969601631165
      ],
      "min": [
        -0.9999959468841553,
        -0.9999896287918091,
        -0.999988317489624
      ],
      "type": "VEC3"
    },
    {
      "bufferView": 1,
      "byteOffset": 7339584,
      "componentType": 5126,
      "count": 65532,
      "max": [
        0.9997423887252808,
        0.9942996501922607
      ],
      "min": [
        0.000244140625,
        0.0002477361122146249
      ],
      "type": "VEC2"
    },
    {
      "bufferView": 1,
      "byteOffset": 7863840,
      "componentType": 5126,
      "count": 65532,
      "max": [
        0.9997423887252808,
        0.9942996501922607
      ],
      "min": [
        0.000244140625,
        0.0002477361122146249
      ],
      "type": "VEC2"
    },
    {
      "bufferView": 0,
      "byteOffset": 7553748,
      "componentType": 5125,
      "count": 251925,
      "type": "SCALAR"
    },
    {
      "bufferView": 2,
      "byteOffset": 12582144,
      "componentType": 5126,
      "count": 65532,
      "max": [
        0.02167019061744213,
        0.012312889099121094,
        0.14192236959934235
      ],
      "min": [
        -0.0734190121293068,
        -0.0058711739256978035,
        0.07419054955244064
      ],
      "type": "VEC3"
    },
    {
      "bufferView": 2,
      "byteOffset": 13368528,
      "componentType": 5126,
      "count": 65532,
      "max": [
        0.9999721646308899,
        0.9999973177909851,
        0.9999464750289917
      ],
      "min": [
        -0.9999999403953552,
        -0.9999951124191284,
        -0.9997353553771973
      ],
      "type": "VEC3"
    },
    {
      "bufferView": 1,
      "byteOffset": 8388096,
      "componentType": 5126,
      "count": 65532,
      "max": [
        0.9996792078018188,
        0.9975462555885315
      ],
      "min": [
        0.000244140625,
        0.00024934543762356043
      ],
      "type": "VEC2"
    },
    {
      "bufferView": 1,
      "byteOffset": 8912352,
      "componentType": 5126,
      "count": 65532,
      "max": [
        0.9996792078018188,
        0.9975462555885315
      ],
      "min": [
        0.000244140625,
        0.00024934543762356043
      ],
      "type": "VEC2"
    },
    {
      "bufferView": 0,
      "byteOffset": 8561448,
      "componentType": 5125,
      "count": 241017,
      "type": "SCALAR"
    },
    {
      "bufferView": 2,
      "byteOffset": 14154912,
      "componentType": 5126,
      "count": 65532,
      "max": [
        0.021899370476603508,
        0.012002944014966488,
        0.14137336611747742
      ],
      "min": [
        -0.07263530045747757,
        -0.006327015347778797,
        -1.922376746676946e-08
      ],
      "type": "VEC3"
    },
    {
      "bufferView": 2,
      "byteOffset": 14941296,
      "componentType": 5126,
      "count": 65532,
      "max": [
        0.9999974370002747,
        0.9999975562095642,
        0.9999999403953552
      ],
      "min": [
        -0.9999982118606567,
        -1.0,
        -0.9999598860740662
      ],
      "type": "VEC3"
    },
    {
      "bufferView": 1,
      "byteOffset": 9436608,
      "componentType": 5126,
      "count": 65532,
      "max": [
        0.999741792678833,
        0.9973894357681274
      ],
      "min": [
        0.000244140625,
        0.00024654401931911707
      ],
      "type": "VEC2"
    },
    {
      "bufferView": 1,
      "byteOffset": 9960864,
      "componentType": 5126,
      "count": 65532,
      "max": [
        0.999741792678833,
        0.9973894357681274
      ],
      "min": [
        0.000244140625,
        0.00024654401931911707
      ],
      "type": "VEC2"
    },
    {
      "bufferView": 0,
      "byteOffset": 9525516,
      "componentType": 5125,
      "count": 256932,
      "type": "SCALAR"
    },
    {
      "bufferView": 2,
      "byteOffset": 15727680,
      "componentType": 5126,
      "count": 65532,
      "max": [
        0.021674737334251404,
        0.010314046405255795,
        0.0839766189455986
      ],
      "min": [
        -0.06997768580913544,
        -0.0048218038864433765,
        -1.922376746676946e-08
      ],
      "type": "VEC3"
    },
    {
      "bufferView": 2,
      "byteOffset": 16514064,
      "componentType": 5126,
      "count": 65532,
      "max": [
        0.9999986290931702,
        0.9999969005584717,
        0.9999999403953552
      ],
      "min": [
        -0.9999992847442627,
        -0.9999998211860657,
        -0.9999870657920837
      ],
      "type": "VEC3"
    },
    {
      "bufferView": 1,
      "byteOffset": 10485120,
      "componentType": 5126,
      "count": 65532,
      "max": [
        0.9997493624687195,
        0.9958495497703552
      ],
      "min": [
        0.000244140625,
        0.00026895536575466394
      ],
      "type": "VEC2"
    },
    {
      "bufferView": 1,
      "byteOffset": 11009376,
      "componentType": 5126,
      "count": 65532,
      "max": [
        0.9997493624687195,
        0.9958495497703552
      ],
      "min": [
        0.000244140625,
        0.00026895536575466394
      ],
      "type": "VEC2"
    },
    {
      "bufferView": 0,
      "byteOffset": 10553244,
      "componentType": 5125,
      "count": 244914,
      "type": "SCALAR"
    },
    {
      "bufferView": 2,
      "byteOffset": 17300448,
      "componentType": 5126,
      "count": 34305,
      "max": [
        -0.00083646405255422,
        0.010573559440672398,
        0.0709897056221962
      ],
      "min": [
        -0.06430737674236298,
        -0.0007901208009570837,
        -6.986902167938069e-09
      ],
      "type": "VEC3"
    },
    {
      "bufferView": 2,
      "byteOffset": 17712108,
      "componentType": 5126,
      "count": 34305,
      "max": [
        0.9988850951194763,
        0.9999952912330627,
        0.9999939799308777
      ],
      "min": [
        -0.9999306797981262,
        -0.9999886155128479,
        -0.9999303817749023
      ],
      "type": "VEC3"
    },
    {
      "bufferView": 1,
      "byteOffset": 11533632,
      "componentType": 5126,
      "count": 34305,
      "max": [
        0.9996823668479919,
        0.9935017228126526
      ],
      "min": [
        0.000244140625,
        0.00028481020126491785
      ],
      "type": "VEC2"
    },
    {
      "bufferView": 1,
      "byteOffset": 11808072,
      "componentType": 5126,
      "count": 34305,
      "max": [
        0.9996823668479919,
        0.9935017228126526
      ],
      "min": [
        0.000244140625,
        0.00028481020126491785
      ],
      "type": "VEC2"
    },
    {
      "bufferView": 0,
      "byteOffset": 11532900,
      "componentType": 5125,
      "count": 116685,
      "type": "SCALAR"
    }
  ],
  "asset": {
    "extras": {
      "author": "ErisedMedia (https://sketchfab.com/ericmcameron)",
      "license": "CC-BY-4.0 (http://creativecommons.org/licenses/by/4.0/)",
      "source": "https://sketchfab.com/3d-models/tudor-window-41ad315eec024797a501458b2bfccc96",
      "title": "Tudor Window"
    },
    "generator": "Sketchfab-15.25.0",
    "version": "2.0"
  },
  "bufferViews": [
    {
      "buffer": 0,
      "byteLength": 11999640,
      "name": "floatBufferViews",
      "target": 34963
    },
    {
      "buffer": 0,
      "byteLength": 12082512,
      "byteOffset": 11999640,
      "byteStride": 8,
      "name": "floatBufferViews",
      "target": 34962
    },
    {
      "buffer": 0,
      "byteLength": 18123768,
      "byteOffset": 24082152,
      "byteStride": 12,
      "name": "floatBufferViews",
      "target": 34962
    }
  ],
  "buffers": [
    {
      "byteLength": 42205920,
      "uri": "scene.bin"
    }
  ],
  "extensionsUsed": [
    "KHR_materials_unlit"
  ],
  "images": [
    {
      "uri": "textures/tex_u1_v1_baseColor.jpeg"
    }
  ],
  "materials": [
    {
      "doubleSided": true,
      "extensions": {
        "KHR_materials_unlit": {}
      },
      "name": "tex_u1_v1",
      "pbrMetallicRoughness": {
        "baseColorTexture": {
          "index": 0
        },
        "metallicFactor": 0.0
      }
    }
  ],
  "meshes": [
    {
      "name": "model_tex_u1_v1_0",
      "primitives": [
        {
          "attributes": {
            "NORMAL": 1,
            "POSITION": 0,
            "TEXCOORD_0": 2,
            "TEXCOORD_1": 3
          },
          "indices": 4,
          "material": 0,
          "mode": 4
        }
      ]
    },
    {
      "name": "model_tex_u1_v1_0",
      "primitives": [
        {
          "attributes": {
            "NORMAL": 6,
            "POSITION": 5,
            "TEXCOORD_0": 7,
            "TEXCOORD_1": 8
          },
          "indices": 9,
          "material": 0,
          "mode": 4
        }
      ]
    },
    {
      "name": "model_tex_u1_v1_0",
      "primitives": [
        {
          "attributes": {
            "NORMAL": 11,
            "POSITION": 10,
            "TEXCOORD_0": 12,
            "TEXCOORD_1": 13
          },
          "indices": 14,
          "material": 0,
          "mode": 4
        }
      ]
    },
    {
      "name": "model_tex_u1_v1_0",
      "primitives": [
        {
          "attributes": {
            "NORMAL": 16,
            "POSITION": 15,
            "TEXCOORD_0": 17,
            "TEXCOORD_1": 18
          },
          "indices": 19,
          "material": 0,
          "mode": 4
        }
      ]
    },
    {
      "name": "model_tex_u1_v1_0",
      "primitives": [
        {
          "attributes": {
            "NORMAL": 21,
            "POSITION": 20,
            "TEXCOORD_0": 22,
            "TEXCOORD_1": 23
          },
          "indices": 24,
          "material": 0,
          "mode": 4
        }
      ]
    },
    {
      "name": "model_tex_u1_v1_0",
      "primitives": [
        {
          "attributes": {
            "NORMAL": 26,
            "POSITION": 25,
            "TEXCOORD_0": 27,
            "TEXCOORD_1": 28
          },
          "indices": 29,
          "material": 0,
          "mode": 4
        }
      ]
    },
    {
      "name": "model_tex_u1_v1_0",
      "primitives": [
        {
          "attributes": {
            "NORMAL": 31,
            "POSITION": 30,
            "TEXCOORD_0": 32,
            "TEXCOORD_1": 33
          },
          "indices": 34,
          "material": 0,
          "mode": 4
        }
      ]
    },
    {
      "name": "model_tex_u1_v1_0",
      "primitives": [
        {
          "attributes": {
            "NORMAL": 36,
            "POSITION": 35,
            "TEXCOORD_0": 37,
            "TEXCOORD_1": 38
          },
          "indices": 39,
          "material": 0,
          "mode": 4
        }
      ]
    },
    {
      "name": "model_tex_u1_v1_0",
      "primitives": [
        {
          "attributes": {
            "NORMAL": 41,
            "POSITION": 40,
            "TEXCOORD_0": 42,
            "TEXCOORD_1": 43
          },
          "indices": 44,
          "material": 0,
          "mode": 4
        }
      ]
    },
    {
      "name": "model_tex_u1_v1_0",
      "primitives": [
        {
          "attributes": {
            "NORMAL": 46,
            "POSITION": 45,
            "TEXCOORD_0": 47,
            "TEXCOORD_1": 48
          },
          "indices": 49,
          "material": 0,
          "mode": 4
        }
      ]
    },
    {
      "name": "model_tex_u1_v1_0",
      "primitives": [
        {
          "attributes": {
            "NORMAL": 51,
            "POSITION": 50,
            "TEXCOORD_0": 52,
            "TEXCOORD_1": 53
          },
          "indices": 54,
          "material": 0,
          "mode": 4
        }
      ]
    },
    {
      "name": "model_tex_u1_v1_0",
      "primitives": [
        {
          "attributes": {
            "NORMAL": 56,
            "POSITION": 55,
            "TEXCOORD_0": 57,
            "TEXCOORD_1": 58
          },
          "indices": 59,
          "material": 0,
          "mode": 4
        }
      ]
    }
  ],
  "nodes": [
    {
      "children": [
        1
      ],
      "matrix": [
        1.0,
        0.0,
        0.0,
        0.0,
        0.0,
        2.220446049250313e-16,
        -1.0,
        0.0,
        0.0,
        1.0,
        2.220446049250313e-16,
        0.0,
        0.0,
        0.0,
        0.0,
        1.0
      ],
      "name": "Sketchfab_model"
    },
    {
      "children": [
        2
      ],
      "matrix": [
        1.0,
        0.0,
        0.0,
        0.0,
        0.0,
        0.0,
        1.0,
        0.0,
        0.0,
        -1.0,
        0.0,
        0.0,
        0.0,
        0.0,
        0.0,
        1.0
      ],
      "name": "model.fbx"
    },
    {
      "children": [
        3
      ],
      "name": "RootNode"
    },
    {
      "children": [
        4,
        5,
        6,
        7,
        8,
        9,
        10,
        11,
        12,
        13,
        14,
        15
      ],
      "matrix": [
        1.0,
        0.0,
        0.0,
        0.0,
        0.0,
        2.220446049250313e-16,
        -1.0,
        0.0,
        0.0,
        1.0,
        2.220446049250313e-16,
        0.0,
        0.0,
        0.0,
        0.0,
        1.0
      ],
      "name": "model"
    },
    {
      "mesh": 0,
      "name": "model_tex_u1_v1_0"
    },
    {
      "mesh": 1,
      "name": "model_tex_u1_v1_0"
    },
    {
      "mesh": 2,
      "name": "model_tex_u1_v1_0"
    },
    {
      "mesh": 3,
      "name": "model_tex_u1_v1_0"
    },
    {
      "mesh": 4,
      "name": "model_tex_u1_v1_0"
    },
    {
      "mesh": 5,
      "name": "model_tex_u1_v1_0"
    },
    {
      "mesh": 6,
      "name": "model_tex_u1_v1_0"
    },
    {
      "mesh": 7,
      "name": "model_tex_u1_v1_0"
    },
    {
      "mesh": 8,
      "name": "model_tex_u1_v1_0"
    },
    {
      "mesh": 9,
      "name": "model_tex_u1_v1_0"
    },
    {
      "mesh": 10,
      "name": "model_tex_u1_v1_0"
    },
    {
      "mesh": 11,
      "name": "model_tex_u1_v1_0"
    }
  ],
  "samplers": [
    {
      "magFilter": 9729,
      "minFilter": 9987,
      "wrapS": 10497,
      "wrapT": 10497
    }
  ],
  "scene": 0,
  "scenes": [
    {
      "name": "Sketchfab_Scene",
      "nodes": [
        0
      ]
    }
  ],
  "textures": [
    {
      "sampler": 0,
      "source": 0
    }
  ]
}
